{
	"asset":{
		"generator":"Khronos glTF Blender I/O v5.0.21",
		"version":"2.0"
	},
	"scene":0,
	"scenes":[
		{
			"extras":{
				"file_path":"/tmp/gradio/4143e00436d943fd1746a4c3fdf945d4fa6c61b40e0d523af700766cb9ffcfea/textured_mesh.glb",
				"file_name":"textured_mesh.glb"
			},
			"name":"Scene",
			"nodes":[
				1,
				2
			]
		}
	],
	"nodes":[
		{
			"mesh":0,
			"name":"textured_mesh.obj"
		},
		{
			"children":[
				0
			],
			"name":"world"
		},
		{
			"extras":{
				"physics":true
			},
			"mesh":1,
			"name":"Cube",
			"scale":[
				1.0499999523162842,
				0.44999998807907104,
				0.17499999701976776
			]
		}
	],
	"materials":[
		{
			"name":"PBR_Material.003",
			"pbrMetallicRoughness":{
				"baseColorTexture":{
					"index":0
				},
				"metallicRoughnessTexture":{
					"index":1
				}
			}
		}
	],
	"meshes":[
		{
			"extras":{
				"units":"meters",
				"processed":true,
				"file_path":"/home/ubuntu/Hunyuan3D-2.1/save_dir/306db981-5040-4d11-88ae-e27d4da86f29/textured_mesh.obj",
				"file_name":"textured_mesh.obj",
				"from_gltf_primitive":false
			},
			"name":"textured_mesh.obj.003",
			"primitives":[
				{
					"attributes":{
						"POSITION":0,
						"NORMAL":1,
						"TEXCOORD_0":2
					},
					"indices":3,
					"material":0
				}
			]
		},
		{
			"name":"Cube",
			"primitives":[
				{
					"attributes":{
						"POSITION":4,
						"NORMAL":5,
						"TEXCOORD_0":6
					},
					"indices":7
				}
			]
		}
	],
	"textures":[
		{
			"sampler":0,
			"source":0
		},
		{
			"sampler":0,
			"source":1
		}
	],
	"images":[
		{
			"bufferView":4,
			"mimeType":"image/png",
			"name":"Image_0"
		},
		{
			"bufferView":5,
			"mimeType":"image/png",
			"name":"Image_1"
		}
	],
	"accessors":[
		{
			"bufferView":0,
			"componentType":5126,
			"count":8460,
			"max":[
				0.9906350374221802,
				0.3962431252002716,
				0.10554008930921555
			],
			"min":[
				-0.9966155886650085,
				-0.3975032567977905,
				-0.12111020088195801
			],
			"type":"VEC3"
		},
		{
			"bufferView":1,
			"componentType":5126,
			"count":8460,
			"type":"VEC3"
		},
		{
			"bufferView":2,
			"componentType":5126,
			"count":8460,
			"type":"VEC2"
		},
		{
			"bufferView":3,
			"componentType":5123,
			"count":24000,
			"type":"SCALAR"
		},
		{
			"bufferView":6,
			"componentType":5126,
			"count":24,
			"max":[
				1,
				1,
				1
			],
			"min":[
				-1,
				-1,
				-1
			],
			"type":"VEC3"
		},
		{
			"bufferView":7,
			"componentType":5126,
			"count":24,
			"type":"VEC3"
		},
		{
			"bufferView":8,
			"componentType":5126,
			"count":24,
			"type":"VEC2"
		},
		{
			"bufferView":9,
			"componentType":5123,
			"count":36,
			"type":"SCALAR"
		}
	],
	"bufferViews":[
		{
			"buffer":0,
			"byteLength":101520,
			"byteOffset":0,
			"target":34962
		},
		{
			"buffer":0,
			"byteLength":101520,
			"byteOffset":101520,
			"target":34962
		},
		{
			"buffer":0,
			"byteLength":67680,
			"byteOffset":203040,
			"target":34962
		},
		{
			"buffer":0,
			"byteLength":48000,
			"byteOffset":270720,
			"target":34963
		},
		{
			"buffer":0,
			"byteLength":121852,
			"byteOffset":318720
		},
		{
			"buffer":0,
			"byteLength":79396,
			"byteOffset":440572
		},
		{
			"buffer":0,
			"byteLength":288,
			"byteOffset":519968,
			"target":34962
		},
		{
			"buffer":0,
			"byteLength":288,
			"byteOffset":520256,
			"target":34962
		},
		{
			"buffer":0,
			"byteLength":192,
			"byteOffset":520544,
			"target":34962
		},
		{
			"buffer":0,
			"byteLength":72,
			"byteOffset":520736,
			"target":34963
		}
	],
	"samplers":[
		{
			"magFilter":9729,
			"minFilter":9987
		}
	],
	"buffers":[
		{
			"byteLength":520808,
			"uri":"data:application/octet-stream;base64,"
		}
	]
}
